<svg width="100" height="30" viewBox="0 0 100 30" fill="none" xmlns="http://www.w3.org/2000/svg">
<path d="M26.1584 0.535999V23H20.6864V9.528L15.6624 23H11.2464L6.19038 9.496V23H0.718375V0.535999H7.18237L13.4864 16.088L19.7264 0.535999H26.1584ZM32.6534 23.256C31.6934 23.256 30.904 22.9787 30.2854 22.424C29.688 21.848 29.3894 21.144 29.3894 20.312C29.3894 19.4587 29.688 18.744 30.2854 18.168C30.904 17.592 31.6934 17.304 32.6534 17.304C33.592 17.304 34.36 17.592 34.9574 18.168C35.576 18.744 35.8854 19.4587 35.8854 20.312C35.8854 21.144 35.576 21.848 34.9574 22.424C34.36 22.9787 33.592 23.256 32.6534 23.256Z" fill="#038489"/>
<path d="M46.8126 6.248C48.5246 6.248 49.8206 6.64 50.7006 7.424C51.5806 8.192 52.0206 9.2 52.0206 10.448C52.0206 10.752 51.9966 11.064 51.9486 11.384C51.7566 12.472 51.2606 13.464 50.4606 14.36C49.6766 15.24 48.6206 15.856 47.2926 16.208L50.1006 23H46.1886L43.6926 16.472H42.0846L40.9326 23H37.5486L40.5246 6.248H46.8126ZM48.4926 11.456C48.5246 11.168 48.5406 10.976 48.5406 10.88C48.5406 10.272 48.3486 9.8 47.9646 9.464C47.5806 9.128 46.9966 8.96 46.2126 8.96H43.4046L42.5166 13.976H45.3246C46.2206 13.976 46.9326 13.752 47.4606 13.304C48.0046 12.856 48.3486 12.24 48.4926 11.456ZM53.2596 16.304C53.4996 14.96 53.9716 13.768 54.6756 12.728C55.3956 11.688 56.2676 10.888 57.2916 10.328C58.3156 9.768 59.3956 9.488 60.5316 9.488C61.5236 9.488 62.3556 9.688 63.0276 10.088C63.7156 10.488 64.2196 10.992 64.5396 11.6L64.8756 9.704H68.2596L65.9076 23H62.5236L62.8836 21.056C62.3556 21.68 61.6676 22.2 60.8196 22.616C59.9876 23.016 59.0756 23.216 58.0836 23.216C57.1076 23.216 56.2436 23 55.4916 22.568C54.7396 22.12 54.1556 21.496 53.7396 20.696C53.3236 19.88 53.1156 18.936 53.1156 17.864C53.1156 17.368 53.1636 16.848 53.2596 16.304ZM63.6996 16.352C63.7636 15.936 63.7956 15.632 63.7956 15.44C63.7956 14.496 63.5156 13.76 62.9556 13.232C62.4116 12.704 61.7236 12.44 60.8916 12.44C60.2676 12.44 59.6596 12.592 59.0676 12.896C58.4916 13.2 57.9876 13.648 57.5556 14.24C57.1236 14.816 56.8356 15.504 56.6916 16.304C56.6436 16.608 56.6196 16.896 56.6196 17.168C56.6196 18.128 56.8916 18.888 57.4356 19.448C57.9796 19.992 58.6676 20.264 59.4996 20.264C60.1236 20.264 60.7316 20.112 61.3236 19.808C61.9156 19.488 62.4196 19.032 62.8356 18.44C63.2676 17.848 63.5556 17.152 63.6996 16.352ZM72.0453 9.032C72.3333 7.4 73.0053 6.2 74.0613 5.432C75.1173 4.664 76.5733 4.304 78.4293 4.352L77.9493 7.184C77.1493 7.168 76.5573 7.304 76.1733 7.592C75.7893 7.88 75.5333 8.4 75.4053 9.152L75.3093 9.704H77.6373L77.1573 12.464H74.8293L72.9573 23H69.5732L71.4453 12.464H69.9093L70.3893 9.704H71.9253L72.0453 9.032ZM81.8067 8.12C81.2787 8.12 80.8547 7.968 80.5347 7.664C80.2147 7.36 80.0547 6.976 80.0547 6.512C80.0547 5.872 80.2947 5.328 80.7747 4.88C81.2707 4.416 81.8467 4.184 82.5027 4.184C83.0147 4.184 83.4307 4.336 83.7507 4.64C84.0707 4.944 84.2307 5.328 84.2307 5.792C84.2307 6.432 83.9907 6.984 83.5107 7.448C83.0307 7.896 82.4627 8.12 81.8067 8.12ZM83.1987 9.704L80.8467 23H77.4627L79.8147 9.704H83.1987ZM84.4544 16.328C84.6944 15 85.1824 13.824 85.9184 12.8C86.6544 11.76 87.5424 10.952 88.5824 10.376C89.6384 9.8 90.7344 9.512 91.8704 9.512C92.8144 9.512 93.6224 9.696 94.2944 10.064C94.9664 10.416 95.4624 10.872 95.7824 11.432L96.0944 9.704H99.4784L96.0224 29.336H92.6384L94.0544 21.176C93.5104 21.752 92.8304 22.232 92.0144 22.616C91.2144 23 90.3344 23.192 89.3744 23.192C88.3984 23.192 87.5264 22.968 86.7584 22.52C85.9904 22.072 85.3904 21.44 84.9584 20.624C84.5264 19.808 84.3104 18.864 84.3104 17.792C84.3104 17.312 84.3584 16.824 84.4544 16.328ZM94.9184 16.352C94.9664 16.032 94.9904 15.736 94.9904 15.464C94.9904 14.504 94.7104 13.76 94.1504 13.232C93.6064 12.704 92.9264 12.44 92.1104 12.44C91.5184 12.44 90.9264 12.592 90.3344 12.896C89.7424 13.2 89.2224 13.648 88.7744 14.24C88.3424 14.816 88.0544 15.512 87.9104 16.328C87.8624 16.632 87.8384 16.928 87.8384 17.216C87.8384 18.16 88.1184 18.904 88.6784 19.448C89.2384 19.992 89.9184 20.264 90.7184 20.264C91.3264 20.264 91.9184 20.112 92.4944 19.808C93.0864 19.504 93.5984 19.056 94.0304 18.464C94.4784 17.872 94.7744 17.168 94.9184 16.352Z" fill="white"/>
</svg>
